ffmpeg version 6.1.1-essentials_build-www.gyan.dev Copyright (c) 2000-2023 the FFmpeg developers
  built with gcc 12.2.0 (Rev10, Built by MSYS2 project)
  configuration: --enable-gpl --enable-version3 --enable-static --pkg-config=pkgconf --disable-w32threads --disable-autodetect --enable-fontconfig --enable-iconv --enable-gnutls --enable-libxml2 --enable-gmp --enable-bzlib --enable-lzma --enable-zlib --enable-libsrt --enable-libssh --enable-libzmq --enable-avisynth --enable-sdl2 --enable-libwebp --enable-libx264 --enable-libx265 --enable-libxvid --enable-libaom --enable-libopenjpeg --enable-libvpx --enable-mediafoundation --enable-libass --enable-libfreetype --enable-libfribidi --enable-libharfbuzz --enable-libvidstab --enable-libvmaf --enable-libzimg --enable-amf --enable-cuda-llvm --enable-cuvid --enable-ffnvcodec --enable-nvdec --enable-nvenc --enable-dxva2 --enable-d3d11va --enable-libvpl --enable-libgme --enable-libopenmpt --enable-libopencore-amrwb --enable-libmp3lame --enable-libtheora --enable-libvo-amrwbenc --enable-libgsm --enable-libopencore-amrnb --enable-libopus --enable-libspeex --enable-libvorbis --enable-librubberband
  libavutil      58. 29.100 / 58. 29.100
  libavcodec     60. 31.102 / 60. 31.102
  libavformat    60. 16.100 / 60. 16.100
  libavdevice    60.  3.100 / 60.  3.100
  libavfilter     9. 12.100 /  9. 12.100
  libswscale      7.  5.100 /  7.  5.100
  libswresample   4. 12.100 /  4. 12.100
  libpostproc    57.  3.100 / 57.  3.100
Input #0, lavfi, from 'sine=frequency=1000:duration=60':
  Duration: N/A, start: 0.000000, bitrate: 705 kb/s
  Stream #0:0: Audio: pcm_s16le, 44100 Hz, mono, s16, 705 kb/s
Stream mapping:
  Stream #0:0 -> #0:0 (pcm_s16le (native) -> mp3 (libmp3lame))
Press [q] to stop, [?] for help
Output #0, mp3, to 'data\temp_audio.mp3':
  Metadata:
    TSSE            : Lavf60.16.100
  Stream #0:0: Audio: mp3, 44100 Hz, mono, s16p
    Metadata:
      encoder         : Lavc60.31.102 libmp3lame
size=       0kB time=N/A bitrate=N/A speed=N/A    [out#0/mp3 @ 000002c1265a6240] video:0kB audio:469kB subtitle:0kB other streams:0kB global headers:0kB muxing overhead: 0.047269%
size=     469kB time=00:00:59.97 bitrate=  64.1kbits/s speed= 218x    
ffmpeg version 6.1.1-essentials_build-www.gyan.dev Copyright (c) 2000-2023 the FFmpeg developers
  built with gcc 12.2.0 (Rev10, Built by MSYS2 project)
  configuration: --enable-gpl --enable-version3 --enable-static --pkg-config=pkgconf --disable-w32threads --disable-autodetect --enable-fontconfig --enable-iconv --enable-gnutls --enable-libxml2 --enable-gmp --enable-bzlib --enable-lzma --enable-zlib --enable-libsrt --enable-libssh --enable-libzmq --enable-avisynth --enable-sdl2 --enable-libwebp --enable-libx264 --enable-libx265 --enable-libxvid --enable-libaom --enable-libopenjpeg --enable-libvpx --enable-mediafoundation --enable-libass --enable-libfreetype --enable-libfribidi --enable-libharfbuzz --enable-libvidstab --enable-libvmaf --enable-libzimg --enable-amf --enable-cuda-llvm --enable-cuvid --enable-ffnvcodec --enable-nvdec --enable-nvenc --enable-dxva2 --enable-d3d11va --enable-libvpl --enable-libgme --enable-libopenmpt --enable-libopencore-amrwb --enable-libmp3lame --enable-libtheora --enable-libvo-amrwbenc --enable-libgsm --enable-libopencore-amrnb --enable-libopus --enable-libspeex --enable-libvorbis --enable-librubberband
  libavutil      58. 29.100 / 58. 29.100
  libavcodec     60. 31.102 / 60. 31.102
  libavformat    60. 16.100 / 60. 16.100
  libavdevice    60.  3.100 / 60.  3.100
  libavfilter     9. 12.100 /  9. 12.100
  libswscale      7.  5.100 /  7.  5.100
  libswresample   4. 12.100 /  4. 12.100
  libpostproc    57.  3.100 / 57.  3.100
Input #0, image2, from 'data\joeyb.jpeg':
  Duration: 00:00:00.04, start: 0.000000, bitrate: 2259 kb/s
  Stream #0:0: Video: mjpeg (Baseline), yuvj444p(pc, bt470bg/unknown/unknown), 300x168 [SAR 1:1 DAR 25:14], 25 fps, 25 tbr, 25 tbn
Stream mapping:
  Stream #0:0 -> #0:0 (mjpeg (native) -> h264 (libx264))
Press [q] to stop, [?] for help
[swscaler @ 00000207f6077fc0] deprecated pixel format used, make sure you did set range correctly
[swscaler @ 00000207f6170ac0] deprecated pixel format used, make sure you did set range correctly
[swscaler @ 00000207f6077fc0] deprecated pixel format used, make sure you did set range correctly
[swscaler @ 00000207f616b0c0] deprecated pixel format used, make sure you did set range correctly
[libx264 @ 00000207f5e3d2c0] using SAR=75/56
[libx264 @ 00000207f5e3d2c0] using cpu capabilities: MMX2 SSE2Fast SSSE3 SSE4.2 AVX FMA3 BMI2 AVX2 AVX512
[libx264 @ 00000207f5e3d2c0] profile High, level 1.3, 4:2:0, 8-bit
[libx264 @ 00000207f5e3d2c0] 264 - core 164 r3172 c1c9931 - H.264/MPEG-4 AVC codec - Copyleft 2003-2023 - http://www.videolan.org/x264.html - options: cabac=1 ref=3 deblock=1:0:0 analyse=0x3:0x113 me=hex subme=7 psy=1 psy_rd=1.00:0.00 mixed_ref=1 me_range=16 chroma_me=1 trellis=1 8x8dct=1 cqm=0 deadzone=21,11 fast_pskip=1 chroma_qp_offset=-2 threads=7 lookahead_threads=1 sliced_threads=0 nr=0 decimate=1 interlaced=0 bluray_compat=0 constrained_intra=0 bframes=3 b_pyramid=2 b_adapt=1 b_bias=0 direct=1 weightb=1 open_gop=0 weightp=2 keyint=250 keyint_min=25 scenecut=40 intra_refresh=0 rc_lookahead=40 rc=crf mbtree=1 crf=23.0 qcomp=0.60 qpmin=0 qpmax=69 qpstep=4 ip_ratio=1.40 aq=1:1.00
Output #0, mp4, to 'data\temp_video.mp4':
  Metadata:
    encoder         : Lavf60.16.100
  Stream #0:0: Video: h264 (avc1 / 0x31637661), yuv420p(tv, bt470bg/unknown/unknown, progressive), 320x240 [SAR 75:56 DAR 25:14], q=2-31, 25 fps, 12800 tbn
    Metadata:
      encoder         : Lavc60.31.102 libx264
    Side data:
      cpb: bitrate max/min/avg: 0/0/0 buffer size: 0 vbv_delay: N/A
frame=    0 fps=0.0 q=0.0 size=       0kB time=N/A bitrate=N/A speed=N/A    frame=  741 fps=0.0 q=28.0 size=       0kB time=00:00:29.56 bitrate=   0.0kbits/s speed=59.1x    frame= 1339 fps=1338 q=28.0 size=       0kB time=00:00:53.44 bitrate=   0.0kbits/s speed=53.4x    [out#0/mp4 @ 00000207f5e38fc0] video:139kB audio:0kB subtitle:0kB other streams:0kB global headers:0kB muxing overhead: 13.219804%
frame= 1500 fps=1319 q=-1.0 Lsize=     158kB time=00:00:59.88 bitrate=  21.6kbits/s speed=52.7x    
[libx264 @ 00000207f5e3d2c0] frame I:6     Avg QP:17.56  size: 19530
[libx264 @ 00000207f5e3d2c0] frame P:378   Avg QP:13.36  size:    28
[libx264 @ 00000207f5e3d2c0] frame B:1116  Avg QP:21.33  size:    13
[libx264 @ 00000207f5e3d2c0] consecutive B-frames:  0.8%  0.0%  0.0% 99.2%
[libx264 @ 00000207f5e3d2c0] mb I  I16..4:  1.3% 53.4% 45.2%
[libx264 @ 00000207f5e3d2c0] mb P  I16..4:  0.0%  0.0%  0.0%  P16..4:  0.4%  0.0%  0.0%  0.0%  0.0%    skip:99.5%
[libx264 @ 00000207f5e3d2c0] mb B  I16..4:  0.0%  0.0%  0.0%  B16..8:  0.0%  0.0%  0.0%  direct: 0.0%  skip:100.0%  L0: 0.0% L1:100.0% BI: 0.0%
[libx264 @ 00000207f5e3d2c0] 8x8 transform intra:53.4% inter:83.3%
[libx264 @ 00000207f5e3d2c0] coded y,uvDC,uvAC intra: 97.6% 94.9% 86.9% inter: 0.0% 0.1% 0.0%
[libx264 @ 00000207f5e3d2c0] i16 v,h,dc,p:  4% 21% 25% 50%
[libx264 @ 00000207f5e3d2c0] i8 v,h,dc,ddl,ddr,vr,hd,vl,hu: 16% 25%  9%  5%  5%  8%  7%  9% 16%
[libx264 @ 00000207f5e3d2c0] i4 v,h,dc,ddl,ddr,vr,hd,vl,hu: 20% 20%  9%  8%  8%  9%  7% 10%  9%
[libx264 @ 00000207f5e3d2c0] i8c dc,h,v,p: 49% 27% 19%  5%
[libx264 @ 00000207f5e3d2c0] Weighted P-Frames: Y:0.0% UV:0.0%
[libx264 @ 00000207f5e3d2c0] ref P L0: 99.6%  0.2%  0.2%
[libx264 @ 00000207f5e3d2c0] ref B L1: 98.5%  1.5%
[libx264 @ 00000207f5e3d2c0] kb/s:18.93
ffmpeg version 6.1.1-essentials_build-www.gyan.dev Copyright (c) 2000-2023 the FFmpeg developers
  built with gcc 12.2.0 (Rev10, Built by MSYS2 project)
  configuration: --enable-gpl --enable-version3 --enable-static --pkg-config=pkgconf --disable-w32threads --disable-autodetect --enable-fontconfig --enable-iconv --enable-gnutls --enable-libxml2 --enable-gmp --enable-bzlib --enable-lzma --enable-zlib --enable-libsrt --enable-libssh --enable-libzmq --enable-avisynth --enable-sdl2 --enable-libwebp --enable-libx264 --enable-libx265 --enable-libxvid --enable-libaom --enable-libopenjpeg --enable-libvpx --enable-mediafoundation --enable-libass --enable-libfreetype --enable-libfribidi --enable-libharfbuzz --enable-libvidstab --enable-libvmaf --enable-libzimg --enable-amf --enable-cuda-llvm --enable-cuvid --enable-ffnvcodec --enable-nvdec --enable-nvenc --enable-dxva2 --enable-d3d11va --enable-libvpl --enable-libgme --enable-libopenmpt --enable-libopencore-amrwb --enable-libmp3lame --enable-libtheora --enable-libvo-amrwbenc --enable-libgsm --enable-libopencore-amrnb --enable-libopus --enable-libspeex --enable-libvorbis --enable-librubberband
  libavutil      58. 29.100 / 58. 29.100
  libavcodec     60. 31.102 / 60. 31.102
  libavformat    60. 16.100 / 60. 16.100
  libavdevice    60.  3.100 / 60.  3.100
  libavfilter     9. 12.100 /  9. 12.100
  libswscale      7.  5.100 /  7.  5.100
  libswresample   4. 12.100 /  4. 12.100
  libpostproc    57.  3.100 / 57.  3.100
Input #0, mov,mp4,m4a,3gp,3g2,mj2, from 'data\temp_video.mp4':
  Metadata:
    major_brand     : isom
    minor_version   : 512
    compatible_brands: isomiso2avc1mp41
    encoder         : Lavf60.16.100
  Duration: 00:01:00.00, start: 0.000000, bitrate: 21 kb/s
  Stream #0:0[0x1](und): Video: h264 (High) (avc1 / 0x31637661), yuv420p(tv, bt470bg/unknown/unknown, progressive), 320x240 [SAR 75:56 DAR 25:14], 19 kb/s, 25 fps, 25 tbr, 12800 tbn (default)
    Metadata:
      handler_name    : VideoHandler
      vendor_id       : [0][0][0][0]
      encoder         : Lavc60.31.102 libx264
Input #1, mp3, from 'data\temp_audio.mp3':
  Metadata:
    encoder         : Lavf60.16.100
  Duration: 00:01:00.03, start: 0.025057, bitrate: 64 kb/s
  Stream #1:0: Audio: mp3, 44100 Hz, mono, fltp, 64 kb/s
Stream mapping:
  Stream #0:0 -> #0:0 (copy)
  Stream #1:0 -> #0:1 (mp3 (mp3float) -> aac (native))
Press [q] to stop, [?] for help
Output #0, mp4, to 'data\input.mp4':
  Metadata:
    major_brand     : isom
    minor_version   : 512
    compatible_brands: isomiso2avc1mp41
    encoder         : Lavf60.16.100
  Stream #0:0(und): Video: h264 (High) (avc1 / 0x31637661), yuv420p(tv, bt470bg/unknown/unknown, progressive), 320x240 [SAR 75:56 DAR 25:14], q=2-31, 19 kb/s, 25 fps, 25 tbr, 12800 tbn (default)
    Metadata:
      handler_name    : VideoHandler
      vendor_id       : [0][0][0][0]
      encoder         : Lavc60.31.102 libx264
  Stream #0:1: Audio: aac (LC) (mp4a / 0x6134706D), 44100 Hz, mono, fltp, 69 kb/s
    Metadata:
      encoder         : Lavc60.31.102 aac
size=       0kB time=N/A bitrate=N/A speed=N/A    size=       0kB time=00:00:20.72 bitrate=   0.0kbits/s speed=41.4x    size=     256kB time=00:00:43.68 bitrate=  48.0kbits/s speed=43.7x    [out#0/mp4 @ 000001abb042e380] video:139kB audio:508kB subtitle:0kB other streams:0kB global headers:0kB muxing overhead: 7.803674%
size=     698kB time=00:00:59.97 bitrate=  95.3kbits/s speed=45.4x    
[aac @ 000001abb06c6480] Qavg: 299.232
